<?xml version="1.0" encoding="UTF-8" standalone="no"?>
<svg width="497px" height="157px" viewBox="0 0 497 157" version="1.1" xmlns="http://www.w3.org/2000/svg" xmlns:xlink="http://www.w3.org/1999/xlink">
    <!-- Generator: Sketch 41.2 (35397) - http://www.bohemiancoding.com/sketch -->
    <title>BB_Logo</title>
    <desc>Created with Sketch.</desc>
    <defs></defs>
    <g id="Page-1" stroke="none" stroke-width="1" fill="none" fill-rule="evenodd">
        <g id="Artboard" transform="translate(-381.000000, -19.000000)">
            <g id="BB_Logo" transform="translate(381.000000, 19.000000)">
                <g id="svg+xml">
                    <g id="Layer_1">
                        <g id="Group">
                            <g id="Shape">
                                <path d="M56.7001674,6.62077108 C58.9166696,5.94118072 68.627696,3.01151807 69.8217841,4.37450602 C71.0158722,5.73559036 74.2185463,9.06501205 75.2810176,10.6735663 C76.6467797,12.7370843 75.7941322,13.0568916 74.7698106,14.5912048 C73.745489,16.1255181 67.7750485,23.1060723 61.6329339,26.6810602 C55.4889119,30.2560482 55.8284449,33.6635181 56.343467,36.557012 C56.854674,39.4524096 58.9014097,46.2616386 53.7836167,57.6680964 C48.6639163,69.0764578 44.3987709,84.4005542 51.054,99.3858072 C57.7092291,114.369157 65.8980793,126.287687 66.9224009,131.905253 C67.944815,137.524723 66.9224009,140.42012 68.7955551,142.634024 C70.6744317,144.846024 69.8217841,153.360892 60.4369383,151.997904 C51.0520925,150.634916 28.8737181,146.03959 16.929022,126.459012 C4.98623348,106.87653 -1.15397357,77.42 10.4473744,54.2644337 C22.0487225,31.1088675 38.0907048,25.6569157 45.0835595,23.1041687 C52.0783216,20.5495181 54.4836652,7.30226506 56.7001674,6.62077108 Z" fill="#FACC00"></path>
                                <path d="M66.9243084,131.903349 C65.8999868,126.285783 57.7111366,114.367253 51.0559075,99.3839036 C44.4006784,84.3986506 48.6677313,69.0745542 53.7855242,57.6661928 C58.9033172,46.2597349 56.8565815,39.450506 56.3453744,36.5551084 C56.2156652,35.8298313 56.0974009,35.076 56.0897709,34.2936145 C54.3577709,34.2098554 48.7688282,34.9789157 46.1136035,37.371759 C37.2666696,45.346 28.0592203,61.9436145 30.2852599,84.0921687 C32.7478282,108.595494 44.7707313,136.08559 69.6043304,145.662675 C69.6443877,144.39106 69.3315595,143.256506 68.79937,142.630217 C66.9243084,140.418217 67.9467225,137.522819 66.9243084,131.903349 Z" fill="#EEA200"></path>
                                <path d="M30.0563612,70.9724578 C30.0563612,70.9724578 30.2070529,70.0625301 30.5751982,68.5206024 C32.6505463,54.1597349 39.4812643,43.3453012 46.1078811,37.3736627 C47.6453172,35.9897349 50.1612952,35.150241 52.34537,34.7047952 C52.34537,34.7047952 52.34537,34.7028916 52.3472775,34.7028916 C52.3472775,34.7028916 50.6057401,23.7076145 39.7483128,25.1695904 C31.6891718,28.6398795 19.6643612,35.8507711 10.441652,54.2625301 C3.92948458,67.2604096 3.01007489,82.2456627 5.56611013,96.3514458 C7.47359912,83.9912771 15.2714141,42.2830843 30.0563612,70.9724578 Z" fill="#FDE06C"></path>
                                <path d="M62.3692247,156.155398 C61.5623568,156.155398 60.7306916,156.094482 59.8589692,155.96694 L59.8589692,155.96694 C54.9662599,155.254988 46.6953877,153.705446 37.9629031,149.704048 L37.9629031,149.704048 C29.2418634,145.710265 19.9790969,139.17706 13.4936344,128.541566 L13.4936344,128.541566 C5.65194714,115.654096 0.24230837,98.9384578 0.227048458,82.0381687 L0.227048458,82.0381687 C0.227048458,71.9471084 2.18031718,61.7722892 6.84985022,52.4636145 L6.84985022,52.4636145 C12.9156652,40.3337831 20.30337,32.6260482 27.1302731,27.7013976 L27.1302731,27.7013976 C33.9361938,22.7786506 40.2270925,20.599012 43.6987225,19.3293012 L43.6987225,19.3293012 C44.6696344,19.0171084 46.0105991,17.7930843 47.2371145,15.8171325 L47.2371145,15.8171325 C48.4655374,13.8735422 49.5337313,11.4083614 50.4760308,9.22872289 L50.4760308,9.22872289 C51.1302996,7.75722892 51.6605815,6.46848193 52.5113216,5.17592771 L52.5113216,5.17592771 C53.0530485,4.48110843 53.5814229,3.47980723 55.5156167,2.78118072 L55.5156167,2.78118072 C56.4483789,2.49754217 58.6553436,1.82556627 61.0778546,1.21450602 L61.0778546,1.21450602 C63.5480529,0.611060241 66.0430485,0.0285542169 68.3892599,0 L68.3892599,0 C68.9443392,0.00190361446 69.5089559,0.0285542169 70.2166344,0.194168675 L70.2166344,0.194168675 C70.8995154,0.373108434 71.8723348,0.654843373 72.8527841,1.73038554 L72.8527841,1.73038554 C73.3601762,2.31289157 74.4855947,3.5159759 75.5957533,4.74951807 L75.5957533,4.74951807 C76.7288018,6.02113253 77.817978,7.23944578 78.6439207,8.46346988 L78.6439207,8.46346988 C79.3058194,9.49713253 79.982978,10.6640482 80.0154053,12.4039518 L80.0154053,12.4039518 C80.0249427,13.8754458 79.3592291,15.0861446 78.9662863,15.6477108 L78.9662863,15.6477108 C78.5447313,16.2549639 78.3082026,16.5290843 78.1212687,16.8146265 L78.1212687,16.8146265 C77.6691938,17.4827952 77.0740573,18.2213976 76.2004273,19.2417349 L76.2004273,19.2417349 C75.3344273,20.2411325 74.2395286,21.4366024 72.969141,22.7044096 L72.969141,22.7044096 C70.4188282,25.2400241 67.2142467,28.0668916 63.6625022,30.1456386 L63.6625022,30.1456386 C61.7531057,31.2554458 60.9023656,32.1748916 60.5342203,32.7440723 L60.5342203,32.7440723 C60.1813348,33.3246747 60.1374626,33.6006988 60.1164802,34.2060482 L60.1164802,34.2060482 C60.1126652,34.6172289 60.1813348,35.1616627 60.3053216,35.8526747 L60.3053216,35.8526747 C60.4960705,36.9548675 61.2151938,39.741759 61.2056564,43.4271566 L61.2056564,43.4271566 C61.2094714,47.5218313 60.3568238,52.8595663 57.4612555,59.3052048 L57.4612555,59.3052048 C54.342511,66.2362651 51.658674,74.526506 51.6701189,82.9709398 L51.6701189,82.9709398 C51.6701189,87.8670361 52.5437489,92.8145301 54.7354537,97.752506 L54.7354537,97.752506 C59.6033656,108.72494 65.3582599,118.060265 68.5857313,124.839036 L68.5857313,124.839036 C69.6634626,127.134795 70.4913128,129.118361 70.886163,131.183783 L70.886163,131.183783 C71.6968458,135.899036 71.4374273,139.106627 71.7426256,139.748145 L71.7426256,139.748145 C71.8151101,139.978482 71.8132026,139.94612 71.8761498,140.037494 L71.8761498,140.037494 C73.2915066,141.813566 73.5890749,143.572506 73.6367621,145.44947 L73.6367621,145.44947 C73.6272247,147.733807 72.9481586,150.311301 71.050207,152.519494 L71.050207,152.519494 C69.1961278,154.710554 66.0831057,156.157301 62.5275463,156.157301 L62.5275463,156.157301 C62.4703216,156.157301 62.4188194,156.155398 62.3692247,156.155398 L62.3692247,156.155398 Z M57.5871498,13.0606988 C56.4445639,15.6515181 55.0044097,19.0209157 52.7268678,21.9943614 L52.7268678,21.9943614 C51.2027841,23.9626988 49.2209031,25.8548916 46.4683965,26.8733253 L46.4683965,26.8733253 C42.9471718,28.1563614 37.7187445,29.9800241 31.8532159,34.2079518 L31.8532159,34.2079518 C26.0124846,38.4358795 19.5823392,45.0280964 14.0487137,56.0576386 L14.0487137,56.0576386 C10.0334493,64.0623373 8.27474449,72.9731566 8.27474449,82.0381687 L8.27474449,82.0381687 C8.25757709,97.194747 13.2571057,112.733952 20.3701322,124.365036 L20.3701322,124.365036 C25.8274581,133.31012 33.6233656,138.866771 41.3258062,142.40559 L41.3258062,142.40559 C49.0148943,145.936795 56.5265859,147.370217 61.009185,148.017446 L61.009185,148.017446 C61.5222996,148.091687 61.9743744,148.122145 62.3692247,148.122145 L62.3692247,148.122145 C64.1279295,148.078361 64.5723744,147.648145 64.9653172,147.256 L64.9653172,147.256 C65.343,146.846723 65.5928811,146.08147 65.5814361,145.44947 L65.5814361,145.44947 C65.5852511,145.259108 65.5623612,145.097301 65.5432863,145.000217 L65.5432863,145.000217 C64.7707533,144.029373 64.2519163,142.902434 63.9772379,141.870675 L63.9772379,141.870675 C63.6720396,140.749446 63.5862026,139.746241 63.5232555,138.794434 L63.5232555,138.794434 C63.4088062,136.892723 63.4088062,135.088096 62.9605463,132.619108 L62.9605463,132.619108 C62.8422819,131.878602 62.2643128,130.266241 61.3086608,128.27506 L61.3086608,128.27506 C60.3568238,126.270554 59.0540088,123.828217 57.5585374,121.066072 L57.5585374,121.066072 C54.5618722,115.528458 50.788859,108.696386 47.3744537,101.00959 L47.3744537,101.00959 C44.6829868,94.958 43.6128855,88.8283614 43.6167004,82.9728434 L43.6167004,82.9728434 C43.6243304,72.8437108 46.7449824,63.5426506 50.1078855,56.0271807 L50.1078855,56.0271807 C52.5704537,50.5162169 53.1465154,46.4367711 53.1541454,43.4309639 L53.1541454,43.4309639 C53.1465154,40.655494 52.6810881,38.9098795 52.3758899,37.2518313 L52.3758899,37.2518313 C52.2385507,36.4427952 52.0668767,35.4186506 52.0630617,34.2079518 L52.0630617,34.2079518 C52.0439868,32.4851807 52.4922467,30.3245783 53.7721718,28.3828916 L53.7721718,28.3828916 C55.040652,26.4297831 56.9614934,24.746988 59.6014581,23.2069639 L59.6014581,23.2069639 C63.5060881,20.9664096 67.9104802,16.5595422 70.09837,13.9972771 L70.09837,13.9972771 C70.8194009,13.163494 71.3554053,12.4610602 71.4145374,12.3639759 L71.4145374,12.3639759 C71.4336123,12.3354217 71.4488722,12.3106747 71.4679471,12.2840241 L71.4679471,12.2840241 C71.0120573,11.7129398 70.3062863,10.8867711 69.6024229,10.1139036 L69.6024229,10.1139036 C68.9557841,9.39433735 68.3034229,8.69 67.7368987,8.06751807 L67.7368987,8.06751807 C66.6591674,8.18554217 64.7574009,8.55484337 63.0444758,9.00219277 L63.0444758,9.00219277 C61.4746123,9.39814458 59.9638811,9.83407229 58.9071322,10.1481687 L58.9071322,10.1481687 C58.5847665,10.7725542 58.1155242,11.8328675 57.5871498,13.0606988 L57.5871498,13.0606988 Z M57.1579648,8.10368675 L56.6982599,6.62077108 L57.1579648,8.10368675 L57.1579648,8.10368675 L57.1579648,8.10368675 Z" fill="#000000"></path>
                            </g>
                        </g>
                    </g>
                </g>
                <path d="M79,103.49639 L79,41 L93.1040497,41 C96.8252782,41 100.180978,41.9801303 103.171251,43.9404203 C105.729596,45.601683 107.556957,48.1766015 108.653391,51.6652532 C109.251445,53.5258674 109.550468,55.7353136 109.550468,58.2936582 C109.550468,62.4800402 108.437439,65.8357405 106.211347,68.3608598 C105.28104,69.4240679 104.184623,70.2380744 102.922063,70.8029037 C105.015254,71.6003098 106.792779,73.1784857 108.25469,75.5374787 C109.218222,77.1322909 109.932554,79.1922257 110.397708,81.717345 C110.630285,83.0131299 110.746571,84.4584068 110.746571,86.053219 C110.746571,90.0070242 109.999014,93.3627245 108.503878,96.1204206 C107.340994,98.2800621 105.696369,100.007749 103.569952,101.303534 C101.177734,102.765445 98.8021641,103.49639 96.4431711,103.49639 L79,103.49639 Z M89.1668769,94.1767529 L93.1040497,94.1767529 C96.2936741,94.1767529 98.5031204,92.5321275 99.7324548,89.2428274 C100.164383,88.1131688 100.380344,86.8174033 100.380344,85.3554921 C100.380344,81.8668405 99.7158489,79.3251467 98.3868387,77.7303345 C97.1907296,76.2684233 95.4298175,75.5374787 93.1040497,75.5374787 L89.1668769,75.5374787 L89.1668769,94.1767529 Z M89.1668769,66.5168674 L93.1040497,66.5168674 C96.0278721,66.5168674 97.9881327,65.0882029 98.9848903,62.2308311 C99.3503681,61.1676229 99.5331042,59.8552451 99.5331042,58.2936582 C99.5331042,55.7020884 98.9018339,53.7418278 97.6392742,52.4128176 C96.4763903,51.1834832 94.964664,50.5688253 93.1040497,50.5688253 L89.1668769,50.5688253 L89.1668769,66.5168674 Z M129.336008,89.1431521 L127.043477,103.49639 L117.225463,103.49639 L127.840879,41.0498376 L140.798663,41.0498376 L151.264566,103.49639 L141.396715,103.49639 L139.154021,89.1431521 L129.336008,89.1431521 Z M134.269933,55.3532379 L130.781299,79.9730279 L137.758568,79.9730279 L134.269933,55.3532379 Z M168.358873,41 L180.818281,82.9632858 L180.818281,41 L190.237594,41 L190.237594,103.49639 L180.120555,103.49639 L167.16277,63.4767719 L167.16277,103.49639 L157.743458,103.49639 L157.743458,41 L168.358873,41 Z M208.82703,89.1431521 L206.534499,103.49639 L196.716486,103.49639 L207.331901,41.0498376 L220.289686,41.0498376 L230.755588,103.49639 L220.887737,103.49639 L218.645044,89.1431521 L208.82703,89.1431521 Z M213.760956,55.3532379 L210.272322,79.9730279 L217.24959,79.9730279 L213.760956,55.3532379 Z M247.849896,41 L260.309304,82.9632858 L260.309304,41 L269.728616,41 L269.728616,103.49639 L259.611577,103.49639 L246.653793,63.4767719 L246.653793,103.49639 L237.23448,103.49639 L237.23448,41 L247.849896,41 Z M288.318053,89.1431521 L286.025522,103.49639 L276.207508,103.49639 L286.822924,41.0498376 L299.780708,41.0498376 L310.246611,103.49639 L300.37876,103.49639 L298.136066,89.1431521 L288.318053,89.1431521 Z M293.251978,55.3532379 L289.763344,79.9730279 L296.740613,79.9730279 L293.251978,55.3532379 Z M316.725503,103.49639 L316.725503,41 L330.829553,41 C334.550781,41 337.906481,41.9801303 340.896754,43.9404203 C343.455099,45.601683 345.28246,48.1766015 346.378894,51.6652532 C346.976948,53.5258674 347.275971,55.7353136 347.275971,58.2936582 C347.275971,62.4800402 346.162942,65.8357405 343.93685,68.3608598 C343.006543,69.4240679 341.910126,70.2380744 340.647566,70.8029037 C342.740757,71.6003098 344.518281,73.1784857 345.980193,75.5374787 C346.943725,77.1322909 347.658057,79.1922257 348.123211,81.717345 C348.355788,83.0131299 348.472074,84.4584068 348.472074,86.053219 C348.472074,90.0070242 347.724517,93.3627245 346.229381,96.1204206 C345.066497,98.2800621 343.421871,100.007749 341.295455,101.303534 C338.903237,102.765445 336.527667,103.49639 334.168674,103.49639 L316.725503,103.49639 Z M326.89238,94.1767529 L330.829553,94.1767529 C334.019177,94.1767529 336.228623,92.5321275 337.457958,89.2428274 C337.889886,88.1131688 338.105847,86.8174033 338.105847,85.3554921 C338.105847,81.8668405 337.441352,79.3251467 336.112342,77.7303345 C334.916232,76.2684233 333.15532,75.5374787 330.829553,75.5374787 L326.89238,75.5374787 L326.89238,94.1767529 Z M326.89238,66.5168674 L330.829553,66.5168674 C333.753375,66.5168674 335.713635,65.0882029 336.710393,62.2308311 C337.075871,61.1676229 337.258607,59.8552451 337.258607,58.2936582 C337.258607,55.7020884 336.627337,53.7418278 335.364777,52.4128176 C334.201893,51.1834832 332.690167,50.5688253 330.829553,50.5688253 L326.89238,50.5688253 L326.89238,66.5168674 Z M369.80258,41.0498376 C375.052171,41.0498376 378.906242,42.4951145 381.364911,45.3857116 C383.524553,47.9108309 384.604357,51.432655 384.604357,55.9512895 L384.604357,65.0217384 C384.604357,69.4406972 382.926507,73.1784822 379.570756,76.2352056 L386.548025,103.49639 L376.381148,103.49639 L370.64982,79.9231903 C370.384018,79.9564155 370.101608,79.9730279 369.80258,79.9730279 L364.370279,79.9730279 L364.370279,103.49639 L354.950966,103.49639 L354.950966,41.0498376 L369.80258,41.0498376 Z M375.434233,56.1008024 C375.434233,52.4792497 373.640096,50.6685005 370.051769,50.6685005 L364.370279,50.6685005 L364.370279,70.6533908 L370.051769,70.6533908 C371.546905,70.6533908 372.817752,70.1217947 373.864347,69.0585866 C374.910943,67.9953785 375.434233,66.7162254 375.434233,65.221089 L375.434233,56.1008024 Z M393.026917,103.49639 L393.026917,41 L419.839563,41 L419.839563,50.4193124 L402.446229,50.4193124 L402.446229,67.51362 L415.154825,67.51362 L415.154825,76.98277 L402.446229,76.98277 L402.446229,94.0770777 L419.839563,94.0770777 L419.839563,103.49639 L393.026917,103.49639 Z M438.428999,89.1431521 L436.136468,103.49639 L426.318455,103.49639 L436.93387,41.0498376 L449.891655,41.0498376 L460.357557,103.49639 L450.489706,103.49639 L448.247013,89.1431521 L438.428999,89.1431521 Z M443.362925,55.3532379 L439.874291,79.9730279 L446.851559,79.9730279 L443.362925,55.3532379 Z M496.440002,88.5451006 C496.440002,92.665032 494.994726,96.1868561 492.104128,99.1106785 C489.213531,102.034501 485.724932,103.49639 481.638226,103.49639 L466.836449,103.49639 L466.836449,41 L481.638226,41 C485.758157,41 489.255063,42.4618892 492.129047,45.3857116 C495.003032,48.3095339 496.440002,51.8147456 496.440002,55.9014519 L496.440002,88.5451006 Z M476.255762,94.1767529 L481.937252,94.1767529 C483.432388,94.1767529 484.694929,93.6368507 485.724912,92.5570299 C486.754895,91.4772092 487.269878,90.2063623 487.269878,88.7444511 L487.269878,56.0509647 C487.269878,54.5558283 486.746588,53.2766752 485.699993,52.2134671 C484.653397,51.150259 483.399163,50.6186629 481.937252,50.6186629 L476.255762,50.6186629 L476.255762,94.1767529 Z" id="BANANABREAD" fill="#000000"></path>
            </g>
        </g>
    </g>
</svg>