<?xml version="1.0" encoding="UTF-8" standalone="no"?>
<svg width="21px" height="21px" viewBox="0 0 21 21" version="1.1" xmlns="http://www.w3.org/2000/svg" xmlns:xlink="http://www.w3.org/1999/xlink">
    <!-- Generator: Sketch 41.2 (35397) - http://www.bohemiancoding.com/sketch -->
    <title>Instagram</title>
    <desc>Created with Sketch.</desc>
    <defs></defs>
    <g id="Page-1" stroke="none" stroke-width="1" fill="none" fill-rule="evenodd">
        <g id="Homepage_default" transform="translate(-585.000000, -3606.000000)" fill="#000000">
            <g id="Social-Icons" transform="translate(435.000000, 3606.000000)">
                <path d="M168.503805,0 L152.496195,0 C151.117503,0 150,1.11521152 150,2.49046723 L150,18.5095328 C150,19.8853613 151.117503,21 152.496195,21 L168.503805,21 C169.882497,21 171,19.8853613 171,18.5095328 L171,2.49046723 C171,1.11521152 169.882497,0 168.503805,0 L168.503805,0 Z M165.094018,3.28148269 C165.094018,2.91891007 165.387857,2.6250716 165.749857,2.6250716 L167.718517,2.6250716 C168.08109,2.6250716 168.374928,2.91891007 168.374928,3.28148269 L168.374928,5.2501432 C168.374928,5.61214303 168.08109,5.90655429 167.718517,5.90655429 L165.749857,5.90655429 C165.387857,5.90655429 165.094018,5.61214303 165.094018,5.2501432 L165.094018,3.28148269 L165.094018,3.28148269 Z M160.524343,6.49537681 C162.754766,6.49537681 164.563047,8.29964815 164.563047,10.5243433 C164.563047,12.7496113 162.754766,14.5538827 160.524343,14.5538827 C158.294493,14.5538827 156.486212,12.7496113 156.486212,10.5243433 C156.486212,8.29964815 158.294493,6.49537681 160.524343,6.49537681 L160.524343,6.49537681 Z M168.374928,19.0313395 L152.625072,19.0313395 C152.262499,19.0313395 151.968661,18.737501 151.968661,18.3749284 L151.968661,8.53162589 L154.593732,8.53162589 C154.25178,9.02364782 154.136077,9.94182145 154.136077,10.5243433 C154.136077,14.0383766 157.002291,16.897717 160.524343,16.897717 C164.046968,16.897717 166.913182,14.0383766 166.913182,10.5243433 C166.913182,9.94182145 166.830128,9.03739465 166.406268,8.53162589 L169.031339,8.53162589 L169.031339,18.3749284 C169.031339,18.737501 168.737501,19.0313395 168.374928,19.0313395 Z" id="Instagram"></path>
            </g>
        </g>
    </g>
</svg>