<?xml version="1.0" encoding="UTF-8" standalone="no"?>
<svg width="21px" height="21px" viewBox="0 0 21 21" version="1.1" xmlns="http://www.w3.org/2000/svg" xmlns:xlink="http://www.w3.org/1999/xlink">
    <!-- Generator: Sketch 41.2 (35397) - http://www.bohemiancoding.com/sketch -->
    <title>Pinterest</title>
    <desc>Created with Sketch.</desc>
    <defs></defs>
    <g id="Page-1" stroke="none" stroke-width="1" fill="none" fill-rule="evenodd">
        <g id="Homepage_default" transform="translate(-547.000000, -3606.000000)" fill="#000000">
            <g id="Social-Icons" transform="translate(435.000000, 3606.000000)">
                <path d="M131.593196,5.22944435 C130.654178,3.62081185 129.380459,2.3471515 127.771706,1.40822386 C126.163,0.469344103 124.406124,0 122.500886,0 C120.595791,0 118.83882,0.469344103 117.230114,1.40822386 C115.621168,2.34700784 114.34745,3.62066819 113.408528,5.22944435 C112.469366,6.83831628 112,8.59506441 112,10.5001197 C112,12.6239245 112.578745,14.5519179 113.736379,16.2833336 C114.893966,18.0155155 116.411633,19.2960238 118.289383,20.125433 C118.252891,19.1502067 118.312178,18.3435919 118.467005,17.7055885 L119.820699,11.9903268 C119.592745,11.5435855 119.478816,10.9880441 119.478816,10.3223618 C119.478816,9.54778361 119.674636,8.90063371 120.06666,8.38095998 C120.458684,7.86138203 120.937148,7.60164094 121.502341,7.60164094 C121.957962,7.60164094 122.308849,7.75200728 122.555049,8.05273996 C122.801297,8.35361629 122.924038,8.73183073 122.924038,9.1876706 C122.924038,9.47001453 122.871407,9.81422893 122.766529,10.2198349 C122.661747,10.6254889 122.525118,11.0948808 122.356499,11.6281546 C122.18788,12.1612368 122.067006,12.5876259 121.994166,12.9063642 C121.866637,13.4622408 121.971371,13.9384807 122.308657,14.3352275 C122.645895,14.7316392 123.092705,14.9301323 123.64875,14.9301323 C124.624021,14.9301323 125.423777,14.3878558 126.048352,13.3033026 C126.672736,12.2184143 126.984785,10.9013201 126.984785,9.35192427 C126.984785,8.15770907 126.599657,7.18693633 125.829258,6.43974971 C125.058954,5.69227577 123.985701,5.31837119 122.609212,5.31837119 C121.069036,5.31837119 119.822423,5.81290405 118.8699,6.80182611 C117.917329,7.79089182 117.441067,8.97361406 117.441067,10.3498492 C117.441067,11.1702556 117.673523,11.8585407 118.138339,12.4143694 C118.293262,12.5966287 118.34345,12.7925838 118.288712,13.0023784 C118.270466,13.0571137 118.23407,13.1937842 118.179333,13.4123901 C118.124834,13.6309959 118.088199,13.7725988 118.070097,13.8362412 C117.997257,14.1279231 117.823944,14.2190528 117.550495,14.1095823 C116.848721,13.8181876 116.315375,13.3121618 115.950888,12.5920794 C115.586257,11.8719971 115.403894,11.037847 115.403894,10.090156 C115.403894,9.47944834 115.501924,8.86878861 115.697935,8.25817677 C115.893756,7.64732549 116.199243,7.05725733 116.613871,6.4875413 C117.028738,5.91768161 117.525497,5.41405015 118.104338,4.9767427 C118.682939,4.53929159 119.387155,4.18842083 120.21665,3.92408256 C121.046145,3.65974428 121.939333,3.52757514 122.896501,3.52757514 C124.191052,3.52757514 125.352996,3.81465992 126.382861,4.38887736 C127.413061,4.96314269 128.199072,5.70587578 128.741517,6.61741185 C129.283962,7.5289958 129.555017,8.50431784 129.555017,9.54337798 C129.555017,10.9105145 129.318059,12.1409325 128.84424,13.2348237 C128.370325,14.3285233 127.700302,15.1875748 126.834172,15.8117867 C125.968185,16.4363337 124.983863,16.7485115 123.880584,16.7485115 C123.32473,16.7485115 122.805176,16.6185452 122.321875,16.3589478 C121.838908,16.099063 121.506124,15.7916261 121.323904,15.4360145 C120.913682,17.0491005 120.66753,18.0109183 120.585447,18.3207496 C120.412279,18.9676122 120.056842,19.7151819 119.518947,20.5627883 C120.494314,20.8544703 121.487782,21 122.499593,21 C124.404687,21 126.161707,20.5306559 127.770413,19.5916325 C129.379262,18.6529443 130.652981,17.3792839 131.591712,15.7706514 C132.530634,14.1616837 133,12.4047919 133,10.4999282 C133.000479,8.59506441 132.531783,6.83807684 131.593196,5.22944435 Z" id="Pinterest"></path>
            </g>
        </g>
    </g>
</svg>