<?xml version="1.0" encoding="UTF-8" standalone="no"?>
<svg width="21px" height="18px" viewBox="0 0 21 18" version="1.1" xmlns="http://www.w3.org/2000/svg" xmlns:xlink="http://www.w3.org/1999/xlink">
    <!-- Generator: Sketch 41.2 (35397) - http://www.bohemiancoding.com/sketch -->
    <title>Twitter</title>
    <desc>Created with Sketch.</desc>
    <defs></defs>
    <g id="Page-1" stroke="none" stroke-width="1" fill="none" fill-rule="evenodd">
        <g id="Homepage_default" transform="translate(-509.000000, -3607.000000)" fill="#000000">
            <g id="Social-Icons" transform="translate(435.000000, 3606.000000)">
                <path d="M94.4207941,1.46028303 C93.5875898,1.96713122 92.6669159,2.33615721 91.6828825,2.53417115 C90.8990201,1.672923 89.778736,1.13513514 88.5384615,1.13513514 C86.1610819,1.13513514 84.2317037,3.11977488 84.2317037,5.56738473 C84.2317037,5.91503421 84.2687101,6.25255798 84.3427229,6.57714334 C80.7620751,6.3920678 77.5879369,4.62906866 75.4617521,1.94462964 C75.0905668,2.6016759 74.8786212,3.36335454 74.8786212,4.1750992 C74.8786212,5.71195741 75.6389341,7.0693655 76.7956639,7.86423397 C76.0902998,7.84285746 75.4247457,7.64090574 74.8427362,7.31125753 L74.8427362,7.36582387 C74.8427362,9.51416265 76.3280378,11.3058513 78.3005901,11.7120049 C77.9394975,11.8155122 77.5582196,11.8678284 77.165167,11.8678284 C76.8876191,11.8678284 76.6167997,11.841389 76.3543908,11.7890728 C76.9027581,13.5492593 78.4929111,14.8312871 80.3785545,14.865602 C78.9044669,16.0553733 77.0457373,16.7641732 75.0277681,16.7641732 C74.6801324,16.7641732 74.3364216,16.7439217 74,16.7034189 C75.9063893,17.9590073 78.1721891,18.6931215 80.6045177,18.6931215 C88.530051,18.6931215 92.8626011,11.9398335 92.8626011,6.08267102 C92.8626011,5.88971993 92.8592369,5.69676884 92.8519478,5.50775554 C93.6935626,4.88277403 94.424719,4.10253159 95,3.213719 C94.228473,3.56643134 93.3975115,3.80494813 92.5261795,3.91126812 C93.4160147,3.36335454 94.0989507,2.49479338 94.4207941,1.46028303" id="Twitter"></path>
            </g>
        </g>
    </g>
</svg>