<?xml version="1.0" encoding="UTF-8" standalone="no"?>
<svg width="18px" height="21px" viewBox="0 0 18 21" version="1.1" xmlns="http://www.w3.org/2000/svg" xmlns:xlink="http://www.w3.org/1999/xlink">
    <!-- Generator: Sketch 41.2 (35397) - http://www.bohemiancoding.com/sketch -->
    <title>youtube-logo</title>
    <desc>Created with Sketch.</desc>
    <defs></defs>
    <g id="Page-1" stroke="none" stroke-width="1" fill="none" fill-rule="evenodd">
        <g id="Homepage_default" transform="translate(-473.000000, -3606.000000)" fill="#000000">
            <g id="Social-Icons" transform="translate(435.000000, 3606.000000)">
                <g id="youtube-logo" transform="translate(38.000000, 0.000000)">
                    <g id="Group">
                        <path d="M17.2043508,10.8435469 C17.1021473,10.3828184 16.8755707,9.99645117 16.5253655,9.68428125 C16.1748708,9.37211133 15.7714752,9.18860742 15.3147236,9.13393359 C13.8662549,8.97782813 11.6816811,8.89981641 8.76075416,8.89981641 C5.83990993,8.89981641 3.65922412,8.97786914 2.21848993,9.13393359 C1.7541279,9.18860742 1.34870555,9.37211133 1.00218154,9.68428125 C0.655740243,9.99657422 0.427426496,10.3829824 0.317157574,10.8435469 C0.112502426,11.7492949 0.0101334906,13.1154434 0.0101334906,14.9422793 C0.0101334906,16.8002461 0.112502426,18.1665176 0.317157574,19.0409707 C0.419650593,19.5013711 0.646020364,19.8880664 0.996349609,20.2001133 C1.34667885,20.5124063 1.75015722,20.6919316 2.20670199,20.7388125 C3.65541889,20.902752 5.8401581,20.9847422 8.76083689,20.9847422 C11.6813089,20.9847422 13.8664617,20.902752 15.3146409,20.7388125 C15.7713925,20.6919316 16.1728028,20.5124063 16.5193268,20.2001133 C16.8658094,19.8881074 17.0941232,19.5013711 17.204268,19.0409707 C17.4089232,18.1352227 17.5114162,16.7690742 17.5114162,14.9422793 C17.5113748,13.0842715 17.4088818,11.717959 17.2043508,10.8435469 Z M5.00573753,12.0265195 L3.74219466,12.0265195 L3.74219466,18.6895078 L2.56137416,18.6895078 L2.56137416,12.0265195 L1.32136581,12.0265195 L1.32136581,10.9257832 L5.00577889,10.9257832 L5.00577889,12.0265195 L5.00573753,12.0265195 Z M8.19406456,18.6895078 L7.14307682,18.6895078 L7.14307682,18.0570059 C6.71796655,18.5334023 6.31630807,18.771457 5.93843228,18.771457 C5.57635646,18.771457 5.34800135,18.626918 5.25365648,18.338168 C5.19074612,18.1508086 5.15910481,17.865709 5.15910481,17.4832383 L5.15910481,12.904623 L6.21009255,12.904623 L6.21009255,17.1671309 C6.21009255,17.416834 6.21406322,17.5535391 6.22200457,17.577 C6.24562181,17.7409395 6.32822009,17.8228887 6.47000624,17.8228887 C6.68252001,17.8228887 6.90702853,17.6589492 7.14311818,17.3310703 L7.14311818,12.904623 L8.19410592,12.904623 L8.19410592,18.6895078 L8.19406456,18.6895078 Z M12.209119,16.9563105 C12.209119,17.5261816 12.1737551,17.9167734 12.1032343,18.1276348 C11.9690586,18.5567402 11.6897879,18.771457 11.264719,18.771457 C10.8868018,18.771457 10.5207967,18.5567402 10.1663313,18.1276348 L10.1663313,18.6896309 L9.11550906,18.6896309 L9.11550906,10.9257832 L10.1663313,10.9257832 L10.1663313,13.4669063 C10.5050381,13.0455527 10.8709605,12.8347324 11.264719,12.8347324 C11.6897879,12.8347324 11.9690586,13.0533867 12.1032343,13.4904902 C12.1737138,13.6934355 12.209119,14.0798438 12.209119,14.6497559 L12.209119,16.9563105 Z M16.2005561,15.9962168 L14.0868341,15.9962168 L14.0868341,17.0150039 C14.0868341,17.5537031 14.2677479,17.8228887 14.6299478,17.8228887 C14.8896547,17.8228887 15.0472408,17.6825332 15.1022926,17.401248 C15.1178444,17.3232363 15.1259098,17.0851816 15.1259098,16.687084 L16.2005148,16.687084 L16.2005148,16.839252 C16.2005148,17.2218867 16.1924493,17.4481699 16.1768562,17.5185938 C16.1534044,17.729127 16.0709715,17.9399473 15.9288959,18.1507676 C15.645489,18.5645742 15.2200065,18.771457 14.6532755,18.771457 C14.1103272,18.771457 13.6851342,18.5723262 13.3779861,18.1743516 C13.1497964,17.8854785 13.0357223,17.432666 13.0357223,16.8159141 L13.0357223,14.7899063 C13.0357223,14.1731953 13.1458257,13.7203828 13.3660741,13.4315098 C13.6732636,13.0334531 14.0944445,12.8344043 14.6299478,12.8344043 C15.1575097,12.8344043 15.5750509,13.0334531 15.8816614,13.4315098 C16.0945061,13.7203828 16.2005561,14.1731953 16.2005561,14.7899063 L16.2005561,15.9962168 L16.2005561,15.9962168 Z" id="Shape"></path>
                        <path d="M10.697409,13.7830137 C10.516247,13.7830137 10.3393038,13.8691875 10.1660418,14.0407148 L10.1660418,17.5653516 C10.3392625,17.737043 10.516247,17.8228887 10.697409,17.8228887 C11.0042676,17.8228887 11.1581726,17.5615371 11.1581726,17.0382598 L11.1581726,14.5676426 C11.1581312,14.0444883 11.0045985,13.7830137 10.697409,13.7830137 Z" id="Shape"></path>
                        <path d="M14.6182012,13.7830137 C14.2639427,13.7830137 14.0868341,14.0485898 14.0868341,14.579127 L14.0868341,15.1178262 L15.149527,15.1178262 L15.149527,14.579127 C15.149527,14.0483027 14.9723357,13.7830137 14.6182012,13.7830137 Z" id="Shape"></path>
                        <path d="M4.32112718,4.67237695 L4.32112718,7.84596094 L5.50194768,7.84596094 L5.50194768,4.67237695 L6.93060441,0 L5.72612531,0 L4.92330469,3.07982227 L4.08478937,0 L2.83311716,0 C3.05357228,0.655839844 3.30943257,1.38571289 3.60073941,2.18986523 C3.97079794,3.26714062 4.21077554,4.09479492 4.32112718,4.67237695 Z" id="Shape"></path>
                        <path d="M8.5129593,7.92795117 C9.05619712,7.92795117 9.47332468,7.72886133 9.76463151,7.33072266 C9.98516935,7.04184961 10.0952728,6.58120313 10.0952728,5.94894727 L10.0952728,3.89956055 C10.0952728,3.27509766 9.98487982,2.81826563 9.76463151,2.52939258 C9.47332468,2.13125391 9.05619712,1.93216406 8.5129593,1.93216406 C7.98535601,1.93216406 7.57199232,2.13125391 7.27295094,2.52939258 C7.05261991,2.81826563 6.94239235,3.27509766 6.94239235,3.89956055 L6.94239235,5.94890625 C6.94239235,6.57336914 7.05249582,7.03405664 7.27295094,7.33068164 C7.5721164,7.72886133 7.98531465,7.92795117 8.5129593,7.92795117 Z M8.0050853,3.68874023 C8.0050853,3.15004102 8.17437663,2.88069141 8.5129593,2.88069141 C8.85154197,2.88069141 9.02066786,3.15004102 9.02066786,3.68874023 L9.02066786,6.14783203 C9.02066786,6.69448828 8.85154197,6.9675293 8.5129593,6.9675293 C8.17437663,6.9675293 8.0050853,6.69432422 8.0050853,6.14783203 L8.0050853,3.68874023 L8.0050853,3.68874023 Z" id="Shape"></path>
                        <path d="M11.7601433,7.92795117 C12.1540259,7.92795117 12.5595723,7.68591797 12.9766999,7.20176953 L12.9766999,7.84583789 L14.0513048,7.84583789 L14.0513048,2.00246484 L12.9766999,2.00246484 L12.9766999,6.46402148 C12.7404448,6.79977539 12.5162258,6.96748828 12.3033811,6.96748828 C12.1615536,6.96748828 12.0788726,6.88164258 12.0553794,6.70991016 C12.0474794,6.6942832 12.0435088,6.55753711 12.0435088,6.3 L12.0435088,2.00246484 L10.9689038,2.00246484 L10.9689038,6.61639453 C10.9689038,7.01445117 11.0006278,7.30709766 11.0634555,7.49458008 C11.1659071,7.78345313 11.3980675,7.92795117 11.7601433,7.92795117 Z" id="Shape"></path>
                    </g>
                </g>
            </g>
        </g>
    </g>
</svg>